<?xml version="1.0" standalone="no"?>
<!DOCTYPE svg PUBLIC "-//W3C//DTD SVG 20010904//EN"
 "http://www.w3.org/TR/2001/REC-SVG-20010904/DTD/svg10.dtd">
<svg version="1.0" xmlns="http://www.w3.org/2000/svg"
 width="900.000000pt" height="520.000000pt" viewBox="0 0 900.000000 520.000000"
 preserveAspectRatio="xMidYMid meet">

<g transform="translate(0.000000,520.000000) scale(0.100000,-0.100000)"
fill="#000000" stroke="none">
<path d="M4310 4954 c-19 -2 -80 -9 -135 -15 -55 -6 -167 -28 -250 -49 -165
-42 -205 -55 -205 -69 0 -7 59 -182 100 -297 l11 -31 81 24 c45 13 140 36 212
51 121 25 148 27 361 27 200 0 244 -3 340 -23 181 -38 234 -52 354 -97 244
-89 444 -212 644 -393 299 -272 496 -598 593 -982 84 -331 86 -636 9 -959 -81
-333 -244 -640 -475 -895 -60 -66 -212 -198 -293 -254 -68 -47 -78 -51 -83
-35 -4 10 -17 45 -30 78 -20 54 -71 196 -214 605 -26 74 -79 227 -119 339 -39
112 -71 209 -71 216 0 7 84 41 198 80 327 113 470 193 587 331 67 79 131 206
150 299 8 39 15 120 15 180 0 321 -173 680 -397 828 -121 79 -226 110 -368
110 -155 1 -177 -5 -795 -223 -74 -26 -193 -68 -263 -93 -71 -25 -131 -47
-133 -50 -5 -5 64 -206 203 -597 24 -69 61 -174 82 -235 77 -222 172 -491 192
-545 12 -30 55 -152 96 -270 87 -248 104 -298 248 -705 58 -165 153 -434 211
-599 57 -164 107 -302 109 -307 15 -24 343 132 510 243 475 317 823 795 969
1337 170 626 79 1289 -252 1841 -189 316 -488 613 -812 807 -263 157 -602 277
-890 313 -90 11 -430 21 -490 14z m1035 -1358 c108 -49 190 -155 253 -323 34
-92 36 -105 36 -218 1 -110 -1 -125 -26 -177 -52 -112 -154 -194 -310 -248
-133 -46 -252 -88 -269 -95 -14 -5 -22 8 -42 67 -14 40 -48 136 -75 213 -27
77 -90 257 -140 400 -51 143 -88 263 -83 268 13 13 312 117 381 132 91 20 208
12 275 -19z"/>
<path d="M3404 4696 c-465 -243 -815 -605 -1039 -1071 -146 -303 -220 -606
-232 -946 -18 -527 147 -1054 466 -1484 87 -116 291 -329 406 -422 537 -434
1265 -613 1934 -477 69 14 130 30 135 34 4 5 -14 70 -42 147 -27 76 -53 149
-57 162 -6 20 -12 23 -44 18 -347 -53 -480 -59 -688 -32 -451 59 -837 246
-1158 561 -305 299 -497 673 -572 1109 -21 127 -24 460 -5 590 57 383 228 754
481 1041 73 84 234 234 251 234 8 0 52 -117 154 -410 41 -118 93 -267 116
-330 23 -63 75 -212 116 -330 41 -118 86 -244 100 -280 64 -172 248 -705 269
-781 51 -186 43 -289 -28 -366 -75 -81 -209 -127 -302 -104 -119 30 -189 116
-265 326 -18 50 -37 100 -41 112 -8 23 -9 23 -196 -43 -103 -36 -196 -68 -205
-71 -25 -8 -23 -20 28 -156 92 -243 213 -409 351 -481 101 -52 144 -61 283
-61 115 0 149 4 232 27 265 74 471 216 556 383 47 95 66 184 65 310 -1 188 -6
204 -353 1185 -56 157 -149 420 -207 585 -58 165 -128 363 -155 440 -27 77
-67 190 -88 250 -21 61 -57 164 -80 230 -65 186 -44 175 -186 101z"/>
</g>
</svg>
